<?xml version="1.0" standalone="no"?><!DOCTYPE svg PUBLIC "-//W3C//DTD SVG 1.1//EN" "http://www.w3.org/Graphics/SVG/1.1/DTD/svg11.dtd"><svg t="1548575357845" class="icon" style="" viewBox="0 0 1024 1024" version="1.1" xmlns="http://www.w3.org/2000/svg" p-id="12026" xmlns:xlink="http://www.w3.org/1999/xlink" width="200" height="200"><defs><style type="text/css"></style></defs><path d="M971.55072 492.17536l-105.472 130.6624a51.07712 51.07712 0 0 1-71.9872 7.68l-130.64192-105.472a51.22048 51.22048 0 0 1 64.32768-79.68768l38.6048 31.17056a229.25312 229.25312 0 0 0-131.11296-173.75232 229.43744 229.43744 0 0 0-276.84864 66.7648 51.2 51.2 0 1 1-80.40448-63.40608 331.50976 331.50976 0 0 1 400.03584-96.37888 331.30496 331.30496 0 0 1 189.11232 248.75008l24.71936-30.65856a51.2 51.2 0 0 1 79.6672 64.32768z m-180.08064 153.78432a51.22048 51.22048 0 0 0-71.92576 8.54016 229.31456 229.31456 0 0 1-276.80768 66.68288 228.9664 228.9664 0 0 1-130.92864-172.46208l41.55392 33.56672a51.22048 51.22048 0 0 0 64.32768-79.68768l-130.68288-105.49248a51.6096 51.6096 0 0 0-37.56032-11.07968c-13.5168 1.4336-25.88672 8.192-34.44736 18.75968l-105.472 130.64192a51.22048 51.22048 0 0 0 79.6672 64.32768l22.71232-28.11904a331.01824 331.01824 0 0 0 188.0064 242.60608 332.63616 332.63616 0 0 0 139.24352 30.6176c99.24608 0 195.91168-44.68736 260.79232-126.976a51.2 51.2 0 0 0-8.47872-71.92576z" p-id="12027"></path></svg>