<?xml version="1.0" standalone="no"?><!DOCTYPE svg PUBLIC "-//W3C//DTD SVG 1.1//EN" "http://www.w3.org/Graphics/SVG/1.1/DTD/svg11.dtd"><svg t="1552887228895" class="icon" style="" viewBox="0 0 1024 1024" version="1.1" xmlns="http://www.w3.org/2000/svg" p-id="1732" xmlns:xlink="http://www.w3.org/1999/xlink" width="200" height="200"><defs><style type="text/css"></style></defs><path d="M860.042971 266.839771c-5.558857-6.465829-13.663086-9.6256-22.191542-9.6256h-629.028572c-8.528457 0-16.632686 3.291429-22.191543 9.757258s-8.031086 14.628571-6.743771 23.054628l102.4 673.206857c2.179657 14.292114 14.467657 25.409829 28.935314 25.409829h424.228572c14.453029 0 26.741029-10.971429 28.935314-25.2928l102.4-673.323886a28.642743 28.642743 0 0 0-6.743772-23.186286z m-56.232228 48.888686l-11.132343 73.142857H253.995886l-11.132343-73.142857h560.9472z m-93.4912 614.4h-59.991772l38.663315-297.545143a14.599314 14.599314 0 0 0-12.609829-16.398628 14.496914 14.496914 0 0 0-16.384 12.624457L620.836571 930.128457h-85.679542v-103.511771a14.628571 14.628571 0 1 0-29.257143 0v103.511771h-78.175086l-43.490743-301.509486a14.628571 14.628571 0 0 0-28.9792 4.169143l42.890972 297.340343h-61.776458l-77.911771-512h69.149257l12.931657 155.253029a14.628571 14.628571 0 1 0 29.140115-2.428343L356.937143 418.128457h148.948114v349.973943a14.628571 14.628571 0 1 0 29.257143 0V418.128457h152.122514l-12.726857 152.824686a14.628571 14.628571 0 1 0 29.140114 2.428343l12.946286-155.253029h71.606857l-77.911771 512zM829.805714 227.957029a29.257143 29.257143 0 0 0 0-58.514286H631.237486c1.097143-3.086629 1.813943-6.363429 1.813943-9.8304 0-64.526629-52.501943-117.028571-117.028572-117.028572s-117.028571 52.501943-117.028571 117.028572c0 3.466971 0.702171 6.743771 1.813943 9.8304H186.148571a29.257143 29.257143 0 0 0 0 58.514286h643.657143z m-372.297143-68.344686c0-32.270629 26.243657-58.514286 58.514286-58.514286s58.514286 26.243657 58.514286 58.514286c0 3.466971 0.7168 6.743771 1.813943 9.8304h-120.656457c1.111771-3.086629 1.813943-6.363429 1.813942-9.8304z" fill="" p-id="1733"></path></svg>