<?xml version="1.0" standalone="no"?><!DOCTYPE svg PUBLIC "-//W3C//DTD SVG 1.1//EN" "http://www.w3.org/Graphics/SVG/1.1/DTD/svg11.dtd"><svg t="1564800066958" class="icon" viewBox="0 0 1024 1024" version="1.1" xmlns="http://www.w3.org/2000/svg" p-id="4964" xmlns:xlink="http://www.w3.org/1999/xlink" width="200" height="200"><defs><style type="text/css"></style></defs><path d="M512 128c211.2 0 384 172.8 384 384s-172.8 384-384 384S128 723.2 128 512 300.8 128 512 128m0-64C265.6 64 64 265.6 64 512s201.6 448 448 448 448-201.6 448-448S758.4 64 512 64z" p-id="4965" fill="#000000"></path><path d="M563.2 512l-169.6 169.6c-12.8 12.8-12.8 32 0 44.8s32 12.8 44.8 0l192-192c12.8-12.8 12.8-32 0-44.8l-192-192c-6.4-6.4-12.8-9.6-22.4-9.6s-16 3.2-22.4 9.6c-12.8 12.8-12.8 32 0 44.8l169.6 169.6z" p-id="4966" fill="#000000"></path></svg>