<?xml version="1.0" standalone="no"?><!DOCTYPE svg PUBLIC "-//W3C//DTD SVG 1.1//EN" "http://www.w3.org/Graphics/SVG/1.1/DTD/svg11.dtd"><svg t="1564798249826" class="icon" viewBox="0 0 1024 1024" version="1.1" xmlns="http://www.w3.org/2000/svg" p-id="2422" xmlns:xlink="http://www.w3.org/1999/xlink" width="200" height="200"><defs><style type="text/css"></style></defs><path d="M511.6 64.2c-247 0.6-447.5 202.1-446.9 449.1 0.2 102 34.8 196 92.6 271.3l24.7 29.5c82.2 90 200.6 146.4 331.8 146.1 95.6-0.2 183.6-30.2 256.3-81.6l-0.2-0.3c4.6-3.4 7.8-8.7 7.8-14.9 0-10.4-8.5-18.8-18.9-18.8-3.7 0-7 1.4-9.9 3.2l-0.2-0.3c-65.6 44.8-149.7 74.7-234.9 74.9-226.3 0.7-410.8-182.9-411.4-409.2-0.5-226.2 183.1-410.7 409.3-411.3C737.9 101.3 922.5 285 923 511.2c0.2 86.6-26.7 167.1-72.5 233.5l0.3 0.2c-2.6 3.2-4.4 7.2-4.4 11.7 0 10.4 8.5 18.8 18.9 18.8 6.2 0 11.4-3.2 14.8-7.8l0.2 0.2c52.5-73.6 80.6-159.6 80.4-256.7-0.6-247-202.1-447.5-449.1-446.9z" fill="#AEB2B7" p-id="2423"></path><path d="M512.8 723.7c10.4 0 18.9-8.4 18.9-18.9v-91.5h117.8c10.4 0 18.9-8.4 18.9-18.9s-8.4-18.9-18.9-18.9H531.6v-58.8h117.8c10.4 0 18.9-8.4 18.9-18.9 0-10.4-8.4-18.9-18.9-18.9h-80l57.5-113c4.7-9.3 1-20.6-8.2-25.4-9.3-4.7-20.6-1-25.4 8.3L527.1 479H493l-67.6-130.2c-4.8-9.2-16.2-12.8-25.4-8s-12.8 16.2-8 25.4L450.5 479H376c-10.4 0-18.9 8.4-18.9 18.9 0 10.4 8.4 18.9 18.9 18.9h117.8v58.8H376.1v-0.1c-10.4 0-18.9 8.4-18.9 18.9s8.4 18.9 18.9 18.9h117.8v91.5c0 10.4 8.4 18.9 18.9 18.9z" fill="#AEB2B7" p-id="2424"></path></svg>