<svg 
 xmlns="http://www.w3.org/2000/svg"
 xmlns:xlink="http://www.w3.org/1999/xlink"
 width="13px" height="14px">
<path fill-rule="evenodd"  fill="rgb(255, 255, 255)"
 d="M12.550,12.977 C12.226,13.312 11.746,13.372 11.476,13.111 L6.563,8.345 L1.822,13.276 C1.562,13.546 1.080,13.503 0.744,13.179 C0.409,12.856 0.348,12.374 0.608,12.104 L5.352,7.170 L0.427,2.391 C0.158,2.130 0.202,1.647 0.526,1.312 C0.850,0.977 1.330,0.917 1.600,1.178 L6.522,5.953 L11.278,1.006 C11.538,0.735 12.021,0.778 12.356,1.102 C12.692,1.425 12.753,1.907 12.493,2.177 L7.733,7.128 L12.649,11.898 C12.918,12.159 12.874,12.642 12.550,12.977 Z"/>
</svg>