<?xml version="1.0" standalone="no"?><!DOCTYPE svg PUBLIC "-//W3C//DTD SVG 1.1//EN" "http://www.w3.org/Graphics/SVG/1.1/DTD/svg11.dtd"><svg t="1572525627230" class="icon" viewBox="0 0 1024 1024" version="1.1" xmlns="http://www.w3.org/2000/svg" p-id="3903" xmlns:xlink="http://www.w3.org/1999/xlink" width="200" height="200"><defs><style type="text/css"></style></defs><path d="M1004 977.6H20c-8.8 0-16-7.2-16-16V736.8c0-8.8 7.2-16 16-16h984c8.8 0 16 7.2 16 16v225.6c0 8-7.2 15.2-16 15.2z m-968-32h952.8V752H36v193.6z" p-id="3904" fill="#AEB2B7"></path><path d="M934.4 929.6c-4 0-8-3.2-8-8v-116H59.2c-4 0-8-3.2-8-8 0-4 3.2-8 8-8h874.4c4 0 8 3.2 8 8v124c0.8 4.8-3.2 8-7.2 8zM736 752H349.6c-5.6 0-10.4-3.2-13.6-8-4-7.2-9.6-13.6-16-18.4l-0.8-0.8c-12-9.6-28-13.6-44-12-75.2 6.4-148.8-34.4-188-102.4-3.2-5.6-2.4-12 0.8-16.8 3.2-4.8 9.6-8 15.2-7.2 12 1.6 23.2 2.4 35.2 1.6 17.6-0.8 33.6-8.8 44.8-21.6 12-14.4 16.8-32.8 14.4-51.2v-0.8c-2.4-15.2-9.6-28.8-22.4-40-57.6-48.8-80.8-129.6-60-205.6 1.6-5.6 6.4-10.4 12-11.2 5.6-0.8 12 0.8 16 5.6 6.4 8.8 14.4 17.6 21.6 24.8 13.6 12.8 30.4 18.4 48.8 17.6 18.4-1.6 35.2-10.4 46.4-25.6l0.8-0.8c8.8-12 13.6-27.2 12-44-6.4-73.6 33.6-147.2 101.6-186.4 5.6-3.2 12-2.4 16.8 0.8 4.8 3.2 8 9.6 7.2 15.2-1.6 12-2.4 23.2-1.6 35.2 0.8 17.6 8.8 33.6 21.6 44.8 14.4 12 32.8 16.8 51.2 14.4h0.8c15.2-1.6 28.8-9.6 40-22.4C559.2 79.2 640 56 716 76.8c5.6 1.6 10.4 6.4 11.2 12 0.8 5.6-0.8 12-5.6 16-8.8 6.4-16.8 14.4-24.8 21.6-12.8 13.6-18.4 30.4-17.6 48.8 1.6 18.4 10.4 35.2 25.6 46.4l0.8 0.8c12 9.6 28 13.6 44 12 75.2-6.4 148.8 34.4 188 102.4 3.2 5.6 2.4 12-0.8 16.8-3.2 4.8-9.6 8-15.2 7.2-12-1.6-23.2-2.4-35.2-1.6-17.6 0.8-33.6 8.8-44.8 21.6-12 14.4-16.8 32.8-14.4 51.2v0.8c2.4 15.2 9.6 28.8 22.4 40 57.6 48.8 80.8 129.6 60 205.6-1.6 5.6-6.4 10.4-12 11.2-5.6 0.8-12-0.8-16-5.6-6.4-8.8-14.4-16.8-21.6-24.8-13.6-12.8-30.4-18.4-48.8-17.6-18.4 1.6-35.2 10.4-46.4 25.6l-0.8 0.8C754.4 680 750.4 696 752 712c0.8 8.8 0.8 17.6 0 27.2-0.8 6.4-7.2 12.8-16 12.8z m-377.6-31.2h362.4c0-2.4 0-4.8-0.8-7.2-1.6-24 4.8-47.2 18.4-65.6l0.8-0.8c16.8-21.6 41.6-35.2 68.8-37.6 27.2-2.4 53.6 7.2 72.8 25.6l3.2 3.2c4.8-54.4-15.2-107.2-56-141.6-18.4-16-30.4-36.8-33.6-60v-0.8c-4-27.2 4-54.4 21.6-76 17.6-20.8 41.6-32 68-33.6h6.4c-35.2-41.6-87.2-64.8-140-60.8-24 1.6-47.2-4.8-65.6-18.4l-0.8-0.8c-21.6-16.8-35.2-41.6-37.6-68.8-2.4-27.2 7.2-53.6 25.6-72.8l3.2-3.2c-54.4-4.8-107.2 15.2-141.6 56-16 18.4-36.8 30.4-60 33.6l-3.2-16 2.4 16c-27.2 4-54.4-4-76-21.6-20.8-17.6-32-41.6-33.6-68v-6.4c-41.6 35.2-64.8 87.2-60.8 140 1.6 24-4.8 47.2-18.4 65.6L272 290.4l12.8 9.6c-16.8 21.6-41.6 35.2-68.8 37.6-27.2 2.4-53.6-7.2-72.8-25.6l-3.2-3.2c-4.8 54.4 15.2 107.2 56 141.6 18.4 16 30.4 36.8 33.6 60v0.8c4 27.2-4 54.4-21.6 76-17.6 20.8-41.6 32-68 33.6h-6.4c35.2 41.6 87.2 64.8 140 60.8 24-2.4 47.2 4.8 65.6 18.4l0.8 0.8c6.4 5.6 12.8 12 18.4 20z" p-id="3905" fill="#AEB2B7"></path><path d="M512 587.2c-63.2 0-113.6-51.2-113.6-113.6C398.4 410.4 449.6 360 512 360c63.2 0 113.6 51.2 113.6 113.6 0 62.4-50.4 113.6-113.6 113.6z m0-212c-54.4 0-98.4 44-98.4 98.4 0 54.4 44 98.4 98.4 98.4 54.4 0 98.4-44 98.4-98.4 0-54.4-44-98.4-98.4-98.4z" p-id="3906" fill="#AEB2B7"></path></svg>