<?xml version="1.0" standalone="no"?><!DOCTYPE svg PUBLIC "-//W3C//DTD SVG 1.1//EN" "http://www.w3.org/Graphics/SVG/1.1/DTD/svg11.dtd"><svg t="1572523435595" class="icon" viewBox="0 0 1024 1024" version="1.1" xmlns="http://www.w3.org/2000/svg" p-id="4642" xmlns:xlink="http://www.w3.org/1999/xlink" width="200" height="200"><defs><style type="text/css"></style></defs><path d="M751.6 386h-59.46a8 8 0 0 0-6.46 3.28L512 626.79 338.32 389.28a8 8 0 0 0-6.46-3.28H272.4a8 8 0 0 0-6.46 12.72l213.77 292.34A40.13 40.13 0 0 0 512 707.45a40.16 40.16 0 0 0 32.29-16.39l213.77-292.34A8 8 0 0 0 751.6 386z" p-id="4643" fill="#AEB2B7"></path><path d="M924.78 337.61A449.35 449.35 0 1 0 960 512a446.29 446.29 0 0 0-35.22-174.39zM775 775a372 372 0 1 1 109-263 369.53 369.53 0 0 1-109 263z" p-id="4644" fill="#AEB2B7"></path></svg>