<?xml version="1.0" standalone="no"?><!DOCTYPE svg PUBLIC "-//W3C//DTD SVG 1.1//EN" "http://www.w3.org/Graphics/SVG/1.1/DTD/svg11.dtd"><svg t="1572523587117" class="icon" viewBox="0 0 1024 1024" version="1.1" xmlns="http://www.w3.org/2000/svg" p-id="1358" xmlns:xlink="http://www.w3.org/1999/xlink" width="200" height="200"><defs><style type="text/css"></style></defs><path d="M544.29 332.94A40.13 40.13 0 0 0 512 316.55a40.16 40.16 0 0 0-32.29 16.39L265.94 625.28A8 8 0 0 0 272.4 638h59.46a8 8 0 0 0 6.46-3.28L512 397.21l173.68 237.51a8 8 0 0 0 6.46 3.28h59.46a8 8 0 0 0 6.46-12.72z" p-id="1359"></path><path d="M924.78 337.61A449.35 449.35 0 1 0 960 512a446.29 446.29 0 0 0-35.22-174.39zM775 775a372 372 0 1 1 109-263 369.53 369.53 0 0 1-109 263z" p-id="1360"></path></svg>