<?xml version="1.0" standalone="no"?><!DOCTYPE svg PUBLIC "-//W3C//DTD SVG 1.1//EN" "http://www.w3.org/Graphics/SVG/1.1/DTD/svg11.dtd"><svg t="1558159033048" class="icon" style="" viewBox="0 0 1024 1024" version="1.1" xmlns="http://www.w3.org/2000/svg" p-id="2495" xmlns:xlink="http://www.w3.org/1999/xlink" width="200" height="200"><defs><style type="text/css"></style></defs><path d="M349.674667 568.981333l93.354667 93.354667c7.296 7.296 16.853333 10.944 26.410667 10.944s19.114667-3.648 26.389333-10.944l186.730667-186.709333c14.592-14.592 14.592-38.229333 0-52.821333s-38.229333-14.592-52.8 0l-160.32 160.32-66.944-66.944c-14.592-14.570667-38.229333-14.570667-52.821333 0C335.104 530.752 335.104 554.389333 349.674667 568.981333L349.674667 568.981333zM852.544 124.202667l-163.328 0c5.973333 8.597333 9.493333 19.008 9.493333 30.272s-3.52 21.674667-9.493333 30.272l133.056 0 0 672.064L209.877333 856.810667 209.877333 184.746667l132.181333 0c-5.973333-8.597333-9.493333-19.008-9.493333-30.272s3.52-21.674667 9.493333-30.272L179.605333 124.202667C162.88 124.202667 149.333333 137.749333 149.333333 154.474667l0 732.586667C149.333333 903.786667 162.901333 917.333333 179.605333 917.333333l672.938667 0c16.725333 0 30.272-13.546667 30.272-30.272L882.816 154.474667C882.816 137.749333 869.248 124.202667 852.544 124.202667L852.544 124.202667zM452.010667 246.570667l125.952 0c32.362667 0 58.581333-26.218667 58.581333-58.581333L636.544 182.784c0-32.362667-26.218667-58.581333-58.581333-58.581333l-2.474667 0c2.005333-5.034667 3.114667-10.517333 3.114667-16.277333C578.602667 83.669333 558.933333 64 534.677333 64l-37.098667 0c-24.256 0-43.925333 19.669333-43.925333 43.925333 0 5.76 1.109333 11.242667 3.136 16.277333l-4.757333 0c-32.362667 0-58.581333 26.218667-58.581333 58.581333l0 5.205333C393.429333 220.352 419.648 246.570667 452.010667 246.570667L452.010667 246.570667z" p-id="2496" fill="#F9685F"></path></svg>