<?xml version="1.0" standalone="no"?><!DOCTYPE svg PUBLIC "-//W3C//DTD SVG 1.1//EN" "http://www.w3.org/Graphics/SVG/1.1/DTD/svg11.dtd"><svg t="1558342157951" class="icon" style="" viewBox="0 0 1024 1024" version="1.1" xmlns="http://www.w3.org/2000/svg" p-id="4237" xmlns:xlink="http://www.w3.org/1999/xlink" width="200" height="200"><defs><style type="text/css"></style></defs><path d="M512 981.333333C252.8 981.333333 42.666667 771.2 42.666667 512S252.8 42.666667 512 42.666667s469.333333 210.133333 469.333333 469.333333-210.133333 469.333333-469.333333 469.333333z m0-85.333333c212.074667 0 384-171.925333 384-384S724.074667 128 512 128 128 299.925333 128 512s171.925333 384 384 384z" p-id="4238" fill="#AEB2B7"></path><path d="M681.173333 512l0.32-0.32-213.354666-213.333333-61.632 61.610666L558.549333 512l-152.042666 152.042667 61.632 61.632 213.333333-213.354667L681.173333 512z" p-id="4239" fill="#AEB2B7"></path></svg>