<?xml version="1.0" standalone="no"?><!DOCTYPE svg PUBLIC "-//W3C//DTD SVG 1.1//EN" "http://www.w3.org/Graphics/SVG/1.1/DTD/svg11.dtd"><svg t="1571891542142" class="icon" viewBox="0 0 1024 1024" version="1.1" xmlns="http://www.w3.org/2000/svg" p-id="1965" xmlns:xlink="http://www.w3.org/1999/xlink" width="200" height="200"><defs><style type="text/css"></style></defs><path d="M204.8 0h477.866667l273.066666 273.066667v614.4c0 75.093333-61.44 136.533333-136.533333 136.533333H204.8c-75.093333 0-136.533333-61.44-136.533333-136.533333V136.533333C68.266667 61.44 129.706667 0 204.8 0z m354.986667 641.706667L682.666667 518.826667c13.653333-13.653333 13.653333-34.133333 0-47.786667-20.48-6.826667-40.96-6.826667-54.613334 6.826667L505.173333 593.92 389.12 477.866667c-13.653333-13.653333-34.133333-13.653333-47.786667 0-13.653333 13.653333-13.653333 34.133333 0 47.786666l122.88 122.88L341.333333 764.586667c-13.653333 13.653333-13.653333 34.133333 0 47.786666 13.653333 13.653333 34.133333 13.653333 47.786667 0l122.88-122.88 122.88 122.88c13.653333 13.653333 34.133333 13.653333 47.786667 0 13.653333-13.653333 13.653333-34.133333 0-47.786666L559.786667 641.706667z" fill="#777777" p-id="1966"></path><path d="M682.666667 0l273.066666 273.066667h-204.8c-40.96 0-68.266667-27.306667-68.266666-68.266667V0z" fill="#E0E0E0" opacity=".619" p-id="1967"></path></svg>