<?xml version="1.0" standalone="no"?><!DOCTYPE svg PUBLIC "-//W3C//DTD SVG 1.1//EN" "http://www.w3.org/Graphics/SVG/1.1/DTD/svg11.dtd"><svg t="1558342219373" class="icon" style="" viewBox="0 0 1088 1024" version="1.1" xmlns="http://www.w3.org/2000/svg" p-id="5089" xmlns:xlink="http://www.w3.org/1999/xlink" width="212.5" height="200"><defs><style type="text/css"></style></defs><path d="M640 64c247.41888 0 448 200.58112 448 448s-200.58112 448-448 448l0-96.01024c94.02368 0 182.41536-36.61824 248.89344-103.09632s103.09632-154.86976 103.09632-248.89344c0-94.02368-36.61824-182.41536-103.09632-248.89344s-154.86976-103.09632-248.89344-103.09632c-94.02368 0-182.41536 36.61824-248.89344 103.09632-51.13856 51.13856-84.5824 115.24096-97.30048 184.89344l186.20416 0-224.01024 256-224.01024-256 164.57728 0c31.06816-217.10848 217.74336-384 443.43296-384zM832 448l0 128-256 0 0-320 128 0 0 192z" p-id="5090" fill="#F9685F"></path></svg>