<?xml version="1.0" standalone="no"?><!DOCTYPE svg PUBLIC "-//W3C//DTD SVG 1.1//EN" "http://www.w3.org/Graphics/SVG/1.1/DTD/svg11.dtd"><svg t="1571891006331" class="icon" viewBox="0 0 1024 1024" version="1.1" xmlns="http://www.w3.org/2000/svg" p-id="1831" xmlns:xlink="http://www.w3.org/1999/xlink" width="200" height="200"><defs><style type="text/css"></style></defs><path d="M204.8 0h477.866667l273.066666 273.066667v614.4c0 75.093333-61.44 136.533333-136.533333 136.533333H204.8c-75.093333 0-136.533333-61.44-136.533333-136.533333V136.533333C68.266667 61.44 129.706667 0 204.8 0z m307.2 607.573333l68.266667 191.146667c13.653333 27.306667 54.613333 27.306667 61.44 0l102.4-273.066667c6.826667-20.48 0-34.133333-20.48-40.96s-34.133333 0-40.96 13.653334l-68.266667 191.146666-68.266667-191.146666c-13.653333-27.306667-54.613333-27.306667-68.266666 0l-68.266667 191.146666-68.266667-191.146666c-6.826667-13.653333-27.306667-27.306667-47.786666-20.48s-27.306667 27.306667-20.48 47.786666l102.4 273.066667c13.653333 27.306667 54.613333 27.306667 61.44 0l75.093333-191.146667z" fill="#777777" p-id="1832"></path><path d="M682.666667 0l273.066666 273.066667h-204.8c-40.96 0-68.266667-27.306667-68.266666-68.266667V0z" fill="#E0E0E0" opacity=".619" p-id="1833"></path></svg>