<svg 
 xmlns="http://www.w3.org/2000/svg"
 xmlns:xlink="http://www.w3.org/1999/xlink"
 width="37px" height="45px">
<path fill-rule="evenodd"  fill="rgb(70, 184, 237)"
 d="M36.938,44.021 C36.935,44.074 36.909,44.119 36.898,44.169 C36.881,44.247 36.869,44.325 36.836,44.395 C36.811,44.452 36.772,44.497 36.737,44.547 C36.695,44.609 36.657,44.672 36.603,44.723 C36.559,44.765 36.506,44.792 36.455,44.826 C36.394,44.866 36.337,44.909 36.268,44.936 C36.209,44.959 36.145,44.963 36.083,44.974 C36.022,44.986 35.968,45.012 35.904,45.012 L1.113,45.012 C0.574,45.014 0.117,44.587 0.074,44.025 L1.110,43.941 L0.076,44.021 C0.072,43.983 -0.987,30.897 6.753,30.294 C6.802,28.433 6.680,26.223 6.538,23.848 C6.447,22.310 6.352,20.711 6.298,19.027 C6.003,9.871 7.084,0.585 17.449,0.183 C26.525,-1.138 29.558,4.864 30.574,12.198 C31.051,15.638 31.062,19.379 31.072,22.729 C31.081,25.969 31.095,28.817 31.525,30.517 C37.882,32.372 36.941,43.985 36.938,44.021 ZM29.003,22.729 C28.994,19.467 28.983,15.826 28.522,12.499 C27.664,6.308 25.164,1.231 17.761,2.296 C17.707,2.306 17.652,2.313 17.596,2.315 L17.561,1.245 L17.594,2.311 C8.984,2.605 8.104,10.839 8.366,18.960 C8.416,20.517 8.513,22.150 8.607,23.723 C8.749,26.108 8.872,28.333 8.828,30.259 L13.691,30.259 L14.554,26.979 C13.553,26.339 12.645,25.481 11.875,24.447 C10.188,22.179 9.139,19.096 9.139,15.934 C9.139,15.266 9.186,14.615 9.278,13.985 C9.370,13.350 9.511,12.730 9.697,12.130 L10.682,12.451 L9.693,12.127 C9.849,11.620 10.336,11.318 10.831,11.392 C12.290,11.565 13.592,10.307 14.532,8.999 C15.578,7.544 16.169,6.036 16.175,6.021 L17.136,6.418 L16.174,6.018 C16.333,5.610 16.709,5.359 17.111,5.349 L17.115,5.348 L17.130,5.348 L17.143,5.348 L17.149,5.348 C17.552,5.353 17.916,5.599 18.081,5.974 C18.291,6.362 19.661,8.788 21.948,10.289 C23.131,11.065 24.568,11.584 26.216,11.392 L26.215,11.390 C26.752,11.327 27.238,11.697 27.348,12.229 C27.518,12.799 27.649,13.386 27.736,13.986 C27.827,14.616 27.875,15.266 27.875,15.934 C27.875,19.096 26.826,22.179 25.138,24.447 C24.373,25.475 23.471,26.329 22.476,26.968 L23.325,30.259 L29.358,30.259 C29.025,28.311 29.012,25.673 29.003,22.729 ZM18.482,36.833 L21.417,31.173 L20.566,27.873 C19.904,28.079 19.216,28.198 18.507,28.198 C17.804,28.198 17.124,28.082 16.468,27.881 L15.583,31.243 L18.482,36.833 ZM18.507,26.057 C20.421,26.057 22.182,24.911 23.491,23.151 C24.914,21.239 25.798,18.627 25.798,15.934 C25.798,15.361 25.759,14.814 25.684,14.295 C25.648,14.046 25.604,13.804 25.554,13.569 C23.745,13.577 22.163,12.957 20.837,12.086 C19.255,11.049 18.046,9.643 17.262,8.559 C16.974,9.088 16.616,9.684 16.194,10.270 C15.056,11.855 13.460,13.376 11.467,13.536 C11.414,13.780 11.368,14.033 11.330,14.295 C11.255,14.814 11.215,15.361 11.215,15.934 C11.215,18.627 12.099,21.239 13.522,23.151 C14.833,24.911 16.593,26.057 18.507,26.057 ZM29.966,32.398 L29.966,32.400 L23.126,32.400 L19.394,39.595 C19.379,39.626 19.352,39.643 19.334,39.671 C19.296,39.731 19.252,39.784 19.202,39.836 C19.152,39.888 19.101,39.933 19.042,39.972 C19.015,39.990 18.998,40.018 18.969,40.034 C18.939,40.051 18.906,40.050 18.875,40.063 C18.809,40.092 18.744,40.111 18.674,40.125 C18.609,40.138 18.547,40.146 18.482,40.146 C18.417,40.146 18.355,40.138 18.290,40.125 C18.220,40.111 18.154,40.092 18.088,40.063 C18.058,40.050 18.025,40.051 17.995,40.034 C17.966,40.018 17.949,39.991 17.922,39.972 C17.863,39.933 17.812,39.888 17.762,39.836 C17.711,39.784 17.668,39.731 17.629,39.671 C17.612,39.643 17.585,39.625 17.569,39.595 L13.838,32.400 L7.047,32.400 L7.028,32.400 C2.296,32.646 2.035,40.134 2.099,42.871 L34.915,42.871 C34.979,40.135 34.722,32.625 29.966,32.398 Z"/>
</svg>