<svg 
 xmlns="http://www.w3.org/2000/svg"
 xmlns:xlink="http://www.w3.org/1999/xlink"
 width="27px" height="27px">
<path fill-rule="evenodd"  fill="rgb(51, 51, 51)"
 d="M25.572,8.189 C25.487,8.272 25.377,8.313 25.266,8.313 C25.155,8.313 25.045,8.272 24.961,8.189 L18.677,2.006 C18.508,1.840 18.508,1.570 18.677,1.404 C20.578,-0.466 23.671,-0.466 25.572,1.404 C26.493,2.310 27.000,3.515 27.000,4.797 C27.000,6.078 26.492,7.283 25.572,8.189 ZM24.961,2.006 C23.500,0.568 21.184,0.473 19.610,1.721 L25.250,7.271 C25.824,6.572 26.135,5.708 26.135,4.796 C26.135,3.742 25.718,2.751 24.961,2.006 ZM24.658,12.842 C24.658,16.828 22.482,20.313 19.245,22.238 L23.347,26.274 C23.516,26.440 23.516,26.709 23.347,26.875 C23.263,26.958 23.152,27.000 23.042,27.000 C22.931,27.000 22.820,26.958 22.736,26.875 L18.457,22.665 C16.962,23.399 15.282,23.823 13.500,23.823 C11.718,23.823 10.038,23.399 8.542,22.665 L4.263,26.875 C4.179,26.958 4.068,27.000 3.958,27.000 C3.847,27.000 3.737,26.958 3.652,26.875 C3.483,26.709 3.483,26.440 3.652,26.274 L7.754,22.238 C4.517,20.313 2.341,16.828 2.341,12.842 C2.341,6.788 7.347,1.862 13.500,1.862 C19.653,1.862 24.658,6.788 24.658,12.842 ZM13.500,2.712 C7.823,2.712 3.205,7.257 3.205,12.842 C3.205,18.428 7.823,22.972 13.500,22.972 C19.176,22.972 23.794,18.428 23.794,12.842 C23.794,7.257 19.176,2.712 13.500,2.712 ZM13.500,21.437 C8.684,21.437 4.766,17.582 4.766,12.842 C4.766,8.103 8.684,4.248 13.500,4.248 C18.316,4.248 22.234,8.103 22.234,12.842 C22.234,17.582 18.316,21.437 13.500,21.437 ZM13.500,4.673 C8.922,4.673 5.198,8.338 5.198,12.842 C5.198,17.347 8.922,21.012 13.500,21.012 C18.078,21.012 21.802,17.347 21.802,12.842 C21.802,8.338 18.078,4.673 13.500,4.673 ZM17.127,14.860 C17.094,14.860 17.061,14.852 17.030,14.837 L13.402,13.032 C13.330,12.996 13.284,12.922 13.284,12.842 L13.284,6.045 C13.284,5.928 13.380,5.833 13.500,5.833 C13.619,5.833 13.716,5.928 13.716,6.045 L13.716,12.712 L17.224,14.457 C17.331,14.510 17.374,14.638 17.320,14.743 C17.282,14.817 17.206,14.860 17.127,14.860 ZM2.039,8.189 C1.954,8.272 1.844,8.313 1.733,8.313 C1.623,8.313 1.512,8.272 1.428,8.189 C0.507,7.283 -0.000,6.078 -0.000,4.797 C-0.000,3.515 0.507,2.310 1.428,1.404 C2.349,0.498 3.573,-0.001 4.875,-0.001 C6.177,-0.001 7.401,0.498 8.322,1.404 C8.491,1.570 8.491,1.840 8.322,2.006 L2.039,8.189 ZM4.875,0.850 C3.804,0.850 2.796,1.260 2.039,2.006 C1.281,2.751 0.864,3.742 0.864,4.797 C0.864,5.708 1.176,6.572 1.749,7.271 L7.389,1.721 C6.679,1.156 5.801,0.850 4.875,0.850 Z"/>
</svg>