<svg 
 xmlns="http://www.w3.org/2000/svg"
 xmlns:xlink="http://www.w3.org/1999/xlink"
 width="28px" height="29px">
<path fill-rule="evenodd"  fill="rgb(70, 184, 237)"
 d="M27.888,12.125 L26.519,14.094 C26.328,14.369 25.961,14.429 25.700,14.228 L24.338,13.180 L24.338,28.394 C24.338,28.733 24.076,29.007 23.753,29.007 L4.315,29.007 C3.991,29.007 3.729,28.733 3.729,28.394 L3.729,13.126 L2.297,14.228 C2.193,14.308 2.072,14.347 1.952,14.347 C1.771,14.347 1.593,14.259 1.478,14.094 L0.109,12.125 C0.018,11.993 -0.021,11.828 0.003,11.666 C0.027,11.505 0.111,11.360 0.236,11.263 L13.653,0.933 C13.859,0.775 14.138,0.775 14.344,0.933 L18.515,4.144 L18.515,0.611 C18.515,0.270 18.777,-0.006 19.100,-0.006 L22.033,-0.006 C22.357,-0.006 22.619,0.270 22.619,0.611 L22.619,7.305 L27.761,11.263 C27.886,11.360 27.970,11.505 27.994,11.666 C28.018,11.828 27.979,11.993 27.888,12.125 ZM11.284,27.782 L16.783,27.782 L16.783,17.779 L11.284,17.779 L11.284,27.782 ZM4.901,27.782 L10.698,27.782 L10.698,17.472 C10.698,17.303 10.830,17.166 10.991,17.166 L17.076,17.166 C17.238,17.166 17.369,17.303 17.369,17.472 L17.369,27.782 L23.166,27.782 L23.166,12.278 L14.012,5.229 L9.676,8.547 L4.901,12.223 L4.901,27.782 ZM21.448,1.227 L19.686,1.227 L19.686,5.046 L21.448,6.402 L21.448,1.227 ZM21.688,8.115 C21.688,8.115 21.688,8.115 21.688,8.115 L18.755,5.857 C18.755,5.857 18.754,5.857 18.754,5.857 L13.998,2.195 L1.401,11.894 L2.078,12.869 L3.928,11.444 C3.944,11.429 3.951,11.407 3.969,11.394 L7.763,8.492 L13.653,3.957 C13.756,3.878 13.877,3.838 13.998,3.838 C14.006,3.838 14.013,3.845 14.021,3.846 C14.147,3.843 14.273,3.878 14.379,3.960 L24.098,11.394 C24.166,11.446 24.217,11.515 24.257,11.589 L25.919,12.869 L26.596,11.894 L21.688,8.115 ZM14.673,23.876 C14.176,23.876 13.772,23.453 13.772,22.933 C13.772,22.413 14.176,21.990 14.673,21.990 C15.170,21.990 15.575,22.413 15.575,22.933 C15.575,23.453 15.170,23.876 14.673,23.876 ZM14.673,22.603 C14.499,22.603 14.358,22.751 14.358,22.933 C14.358,23.115 14.499,23.263 14.673,23.263 C14.847,23.263 14.989,23.115 14.989,22.933 C14.989,22.751 14.847,22.603 14.673,22.603 Z"/>
</svg>