<svg 
 xmlns="http://www.w3.org/2000/svg"
 xmlns:xlink="http://www.w3.org/1999/xlink"
 width="33px" height="26px">
<path fill-rule="evenodd"  fill="rgb(13, 33, 28)"
 d="M32.525,26.000 C30.531,19.862 24.753,15.477 17.937,15.351 C17.087,15.336 16.285,15.355 15.523,15.407 L15.523,21.471 C15.527,21.490 15.530,21.508 15.530,21.526 C15.530,21.674 15.409,21.796 15.262,21.796 C15.162,21.796 15.078,21.744 15.033,21.667 L15.033,21.692 L0.191,11.287 L0.269,11.287 C0.121,11.287 -0.000,11.165 -0.000,11.018 C-0.000,10.911 0.062,10.819 0.151,10.774 L15.030,0.347 L15.030,0.373 C15.078,0.295 15.162,0.244 15.258,0.244 C15.405,0.244 15.527,0.365 15.527,0.513 C15.527,0.531 15.523,0.550 15.519,0.568 L15.519,6.452 C16.200,6.419 16.914,6.408 17.665,6.422 C26.133,6.566 33.000,13.690 33.000,22.187 C33.004,23.497 32.834,24.778 32.525,26.000 L32.525,26.000 ZM15.523,-0.000 L15.523,0.007 L15.508,0.007 L15.523,-0.000 ZM15.523,22.032 L15.512,22.025 L15.523,22.025 L15.523,22.032 Z"/>
</svg>