<svg 
 xmlns="http://www.w3.org/2000/svg"
 xmlns:xlink="http://www.w3.org/1999/xlink"
 width="36px" height="32px">
<path fill-rule="evenodd"  fill="rgb(51, 51, 51)"
 d="M35.326,7.069 L34.019,7.489 L34.019,12.416 C34.909,12.760 35.567,13.876 35.567,15.210 C35.567,16.420 35.028,17.459 34.264,17.899 L36.009,31.071 C36.040,31.297 35.994,31.531 35.887,31.708 C35.779,31.885 35.619,31.987 35.451,31.987 L31.453,31.987 C31.285,31.987 31.125,31.885 31.017,31.708 C30.909,31.531 30.864,31.297 30.895,31.071 L32.639,17.899 C31.875,17.459 31.337,16.420 31.337,15.210 C31.337,13.876 31.995,12.760 32.884,12.416 L32.884,7.853 L30.322,8.676 L30.322,23.921 C30.322,24.290 30.134,24.608 29.870,24.683 C25.891,25.814 21.884,26.380 17.877,26.380 C13.870,26.380 9.863,25.814 5.885,24.683 C5.621,24.608 5.432,24.290 5.432,23.921 L5.432,8.676 L0.429,7.069 C0.172,6.987 -0.009,6.673 -0.009,6.312 C-0.009,5.951 0.172,5.637 0.429,5.555 L17.748,-0.009 C17.833,-0.036 17.922,-0.036 18.007,-0.009 L35.326,5.555 C35.583,5.637 35.764,5.951 35.764,6.312 C35.764,6.673 35.583,6.987 35.326,7.069 ZM6.567,23.286 C14.075,25.338 21.680,25.338 29.188,23.286 L29.188,20.697 C25.433,21.708 21.656,22.231 17.877,22.231 C14.099,22.231 10.322,21.708 6.567,20.697 L6.567,23.286 ZM6.567,19.907 C14.076,21.949 21.680,21.949 29.188,19.907 L29.188,9.041 L18.007,12.633 C17.964,12.646 17.921,12.653 17.877,12.653 C17.834,12.653 17.790,12.646 17.748,12.633 L6.567,9.041 L6.567,19.907 ZM17.877,1.547 L3.044,6.312 L17.877,11.077 L32.711,6.312 L17.877,1.547 ZM34.772,30.432 L33.452,20.473 L32.132,30.432 L34.772,30.432 ZM33.452,13.851 C32.911,13.851 32.471,14.461 32.471,15.210 C32.471,15.947 32.898,16.541 33.425,16.562 C33.443,16.562 33.461,16.562 33.478,16.562 C34.006,16.541 34.432,15.947 34.432,15.210 C34.432,14.461 33.992,13.851 33.452,13.851 Z"/>
</svg>