<svg 
 xmlns="http://www.w3.org/2000/svg"
 xmlns:xlink="http://www.w3.org/1999/xlink"
 width="19px" height="12px">
<path fill-rule="evenodd"  fill="rgb(153, 170, 203)"
 d="M9.901,11.524 C4.875,11.524 0.691,6.404 0.724,5.909 C0.756,5.414 4.875,0.476 9.901,0.476 C14.928,0.476 18.938,5.736 19.003,6.000 C19.067,6.264 14.928,11.524 9.901,11.524 ZM9.731,2.137 C9.520,1.967 9.098,1.908 8.931,2.123 C8.931,2.123 8.167,2.377 7.681,3.002 C7.201,3.619 6.870,4.595 6.870,4.595 C6.704,4.809 6.821,5.205 7.031,5.375 C7.241,5.545 7.547,5.467 7.714,5.253 C7.714,5.253 7.984,4.335 8.457,3.727 C8.950,3.094 9.809,2.833 9.809,2.833 C9.976,2.618 9.941,2.307 9.731,2.137 ZM11.732,1.858 C12.699,2.609 13.335,3.798 13.335,5.151 C13.335,7.425 11.562,9.268 9.376,9.268 C7.190,9.268 5.418,7.425 5.418,5.151 C5.418,4.163 5.766,3.270 6.323,2.560 C4.073,3.782 2.541,5.729 2.604,5.987 C2.697,6.366 5.866,10.406 9.889,10.406 C13.912,10.406 17.149,6.171 17.149,5.950 C17.149,5.764 14.855,2.798 11.732,1.858 Z"/>
</svg>