<svg 
 xmlns="http://www.w3.org/2000/svg"
 xmlns:xlink="http://www.w3.org/1999/xlink"
 width="19px" height="14px">
<path fill-rule="evenodd"  fill="rgb(153, 170, 203)"
 d="M9.537,12.774 C9.471,12.774 9.408,12.764 9.342,12.762 L9.923,11.586 C13.919,11.321 17.075,7.199 17.075,6.976 C17.075,6.832 15.762,5.099 13.759,3.813 L14.299,2.719 C17.086,4.360 18.958,6.845 19.003,7.028 C19.070,7.303 14.765,12.774 9.537,12.774 ZM10.627,10.160 L13.120,5.107 C13.208,5.449 13.260,5.806 13.260,6.176 C13.260,7.984 12.169,9.524 10.627,10.160 ZM11.591,2.764 C11.780,2.912 11.944,3.089 12.106,3.266 L8.574,10.423 C6.493,10.170 4.874,8.377 4.874,6.176 C4.874,5.118 5.261,4.162 5.880,3.413 C3.504,4.681 1.883,6.744 1.949,7.015 C2.034,7.362 4.601,10.660 8.070,11.442 L7.539,12.519 C3.247,11.459 -0.037,7.381 -0.008,6.934 C0.026,6.419 4.310,1.282 9.537,1.282 C10.671,1.282 11.750,1.549 12.753,1.955 L12.226,3.023 C12.015,2.935 11.811,2.835 11.591,2.764 ZM9.360,3.010 C9.141,2.833 8.701,2.772 8.528,2.995 C8.528,2.995 7.734,3.259 7.228,3.909 C6.729,4.551 6.385,5.567 6.385,5.567 C6.212,5.790 6.334,6.201 6.552,6.378 C6.771,6.555 7.089,6.474 7.262,6.251 C7.262,6.251 7.544,5.296 8.036,4.664 C8.548,4.005 9.441,3.734 9.441,3.734 C9.615,3.511 9.578,3.187 9.360,3.010 Z"/>
<path fill-rule="evenodd"  fill="rgb(153, 170, 203)"
 d="M11.695,0.442 L12.873,1.053 C13.003,1.120 13.052,1.289 12.982,1.431 L7.133,13.265 C7.063,13.406 6.901,13.466 6.771,13.399 L5.593,12.788 C5.463,12.721 5.414,12.552 5.484,12.410 L11.333,0.576 C11.403,0.435 11.565,0.375 11.695,0.442 Z"/>
</svg>