<svg 
 xmlns="http://www.w3.org/2000/svg"
 xmlns:xlink="http://www.w3.org/1999/xlink"
 width="18px" height="20px">
<path fill-rule="evenodd"  fill="rgb(70, 184, 237)"
 d="M13.000,20.000 L5.000,20.000 C2.239,20.000 -0.000,17.761 -0.000,15.000 L-0.000,12.829 C-0.000,10.068 2.239,7.829 5.000,7.829 L13.000,7.829 C15.761,7.829 18.000,10.068 18.000,12.829 L18.000,15.000 C18.000,17.761 15.761,20.000 13.000,20.000 ZM9.319,11.217 C7.941,11.217 6.825,12.086 6.825,13.158 C6.825,14.052 7.606,14.797 8.662,15.022 L8.662,17.600 C8.662,17.872 8.883,18.092 9.155,18.092 L9.483,18.092 C9.755,18.092 9.975,17.872 9.975,17.600 L9.975,15.022 C11.032,14.797 11.812,14.052 11.812,13.158 C11.812,12.086 10.696,11.217 9.319,11.217 Z"/>
<path fill-rule="evenodd"  fill="rgb(70, 184, 237)"
 d="M13.601,6.842 C13.618,6.672 13.650,6.507 13.650,6.332 C13.650,3.634 11.576,1.447 9.019,1.447 C6.461,1.447 4.387,3.634 4.387,6.332 C4.387,6.507 4.419,6.672 4.436,6.842 L2.462,6.842 C2.459,6.758 2.437,6.680 2.437,6.595 C2.437,2.953 5.376,-0.000 9.000,-0.000 C12.624,-0.000 15.562,2.953 15.562,6.595 C15.562,6.680 15.541,6.758 15.538,6.842 L13.601,6.842 Z"/>
</svg>