<svg 
 xmlns="http://www.w3.org/2000/svg"
 xmlns:xlink="http://www.w3.org/1999/xlink"
 width="32px" height="32px">
<path fill-rule="evenodd"  fill="rgb(51, 51, 51)"
 d="M15.840,31.136 C7.431,31.136 0.614,24.306 0.614,15.882 C0.614,7.458 7.431,0.628 15.840,0.628 C24.249,0.628 31.066,7.458 31.066,15.882 C31.066,24.306 24.249,31.136 15.840,31.136 ZM15.840,2.491 C8.458,2.491 2.474,8.254 2.474,15.649 C2.474,23.044 8.458,29.040 15.840,29.040 C23.222,29.040 29.207,23.044 29.207,15.649 C29.207,8.254 23.222,2.491 15.840,2.491 ZM24.495,16.343 L19.216,22.862 C19.034,23.087 18.520,22.982 18.069,22.627 C17.617,22.272 17.399,21.803 17.581,21.578 L21.035,17.312 L6.752,17.312 C6.184,17.312 5.723,16.851 5.723,16.283 C5.723,15.715 6.184,15.255 6.752,15.255 L21.582,15.255 L17.452,10.188 C17.271,9.966 17.481,9.496 17.923,9.141 C18.364,8.785 18.870,8.677 19.051,8.900 L24.310,15.351 C24.372,15.427 24.379,15.535 24.351,15.656 C24.546,15.923 24.619,16.190 24.495,16.343 Z"/>
</svg>